<svg viewBox="0 0 196 69" xmlns="http://www.w3.org/2000/svg"><path d="m135.51 31.9h6.73l-3.38-7.82z" fill="none"/><path d="m121.6 24.1c-.76-.59-1.79-.88-3.08-.88h-4.01v7.07h4.01c1.31 0 2.34-.32 3.1-.97.76-.64 1.14-1.5 1.14-2.57-.01-1.18-.39-2.06-1.16-2.65z" fill="none"/><path d="m182.17 31.9h6.74l-3.38-7.82z" fill="none"/><path d="m160.07 48.49c-1.45 0-2.2.93-2.33 2.16h4.65c-.05-.89-.52-2.16-2.32-2.16z" fill="none"/><path d="m75.02 24.08-3.35 7.82h6.73z" fill="none"/><path d="m125.65 48.53c-1.64 0-2.44 1.24-2.44 2.68 0 1.35.89 2.66 2.46 2.66 1.65 0 2.45-1.23 2.45-2.65.01-1.46-.89-2.69-2.47-2.69z" fill="none"/><path d="m135.9 53.84c1.69 0 2.36-1.33 2.36-2.73 0-1.2-.69-2.57-2.37-2.57-1.62 0-2.42 1.17-2.42 2.65-0 1.65.97 2.65 2.43 2.65z" fill="none"/><path d="m14.78 56.81v9.69h12.92v-9.77l-6.38-3.58z" fill="none"/><g fill="#010202"><path d="m37.21 66.5c2.69-6.15 3.64-13.36 3.62-20.42-.02-10.73-2.28-21.18-4.02-27h6.25l.06-1.41c.13-2.89-1.12-5.34-3.35-7.24-1.78-1.51-4.19-2.65-7.01-3.34.22-.24.47-.47.74-.69.86-.67 1.91-1.17 2.94-1.33l-.5-2.91c-1.55.25-3.11.98-4.35 1.96-1.25.98-2.22 2.26-2.59 3.62l-.43 1.56 1.65.26c3.16.5 5.8 1.57 7.56 3.07 1.15.98 1.92 2.15 2.2 3.49h-7.33l.66 1.93c1.71 5.03 4.46 16.35 4.49 28.02.02 7.17-.99 14.45-3.91 20.42h-3.13v-11.46l-9.43-5.28-9.59 5.36v11.39h-2.9c-2.58-4.78-4.82-9.92-5.63-14.7-.83-4.88-.16-9.37 3.23-12.58 3.36-3.18 7.26-3.16 10.6-3.14 6.12.03 10.75.05 10.19-12.24-.07-1.49-.16-2.83-.24-4.14-.51-7.79-.94-14.2 4.88-16.86l-1.3-2.66c-7.68 3.52-7.2 10.83-6.62 19.71.09 1.37.18 2.77.24 4.08.42 9.21-2.84 9.19-7.15 9.17-3.92-.02-8.5-.04-12.73 3.97s-5.1 9.39-4.11 15.17c.8 4.67 2.82 9.6 5.21 14.22h-5.65v2.95h43.34v-2.95zm-9.51 0h-12.92v-9.69l6.54-3.66 6.39 3.57v9.78z"/><path d="m32.21 12.25c0-.94-.78-1.69-1.75-1.69s-1.75.76-1.75 1.69.78 1.69 1.75 1.69c.96.01 1.75-.75 1.75-1.69z"/><path d="m90.13 45.06h1.07v9.48h-1.07z"/><path d="m105.05 54.54v-4.17c0-1.97-1.07-2.72-2.36-2.72-1.33 0-1.96.73-2.32 1.33-.31-.8-.99-1.33-2.06-1.33-1.21 0-1.86.65-2.21 1.25.01-.39 0-.79-.03-1.07h-.99c.01.57.01 1.15.01 1.73v4.97h1.01v-3.53c0-1.37.52-2.46 1.9-2.46 1.28 0 1.56.97 1.56 1.81v4.19h1.01v-3.66c0-1.54.76-2.34 1.92-2.34 1.28 0 1.54 1.04 1.54 1.88v4.13h1.02z"/><path d="m109.91 47.85h-.99c.01.57.01 1.15.01 1.73v4.97h1.01v-3.55c0-1.37.52-2.46 1.9-2.46 1.28 0 1.56.97 1.56 1.81v4.19h1.01v-3.66c0-1.54.76-2.34 1.92-2.34 1.28 0 1.54 1.04 1.54 1.88v4.13h1v-4.17c0-1.97-1.07-2.72-2.36-2.72-1.33 0-1.96.73-2.32 1.33-.31-.8-.99-1.33-2.06-1.33-1.21 0-1.86.65-2.21 1.25.03-.38.01-.78-.01-1.06z"/><path d="m125.71 47.66c-2.17 0-3.52 1.6-3.52 3.54 0 1.85 1.27 3.53 3.46 3.53 2.37 0 3.52-1.73 3.52-3.54 0-1.8-1.23-3.53-3.46-3.53zm-.03 6.21c-1.57 0-2.46-1.32-2.46-2.66 0-1.44.8-2.68 2.44-2.68 1.57 0 2.48 1.24 2.48 2.69-.01 1.42-.81 2.65-2.46 2.65z"/><path d="m132.51 44.5v7.71c0 .77 0 1.52-.01 2.33h.97c.03-.25.03-.75.04-1.12.35.64 1.04 1.3 2.52 1.3 1.9 0 3.28-1.42 3.28-3.65 0-1.94-1.33-3.42-3.22-3.42-1.48 0-2.22.76-2.56 1.32v-4.47zm3.38 4.04c1.68 0 2.37 1.37 2.37 2.57 0 1.4-.67 2.73-2.36 2.73-1.46 0-2.44-1-2.44-2.65.01-1.48.8-2.65 2.43-2.65z"/><path d="m142.59 47.85h1v6.7h-1z"/><path d="m142.59 44.5h1v1.46h-1z"/><path d="m147.49 44.5h1.01v10.04h-1.01z"/><path d="m152.4 47.85h1v6.7h-1z"/><path d="m152.4 44.5h1v1.46h-1z"/><path d="m163.46 51.15c0-1.61-.85-3.49-3.37-3.49-2.01 0-3.38 1.49-3.38 3.56 0 1.78 1.12 3.52 3.42 3.52 1.96 0 2.89-1.11 3.24-2.05h-1.01c-.39.72-1.03 1.2-2.14 1.2-1.46 0-2.41-1.03-2.49-2.45h5.74v-.29zm-5.72-.51c.13-1.23.88-2.16 2.33-2.16 1.8 0 2.26 1.28 2.32 2.16z"/><path d="m167.78 54.54v-2.9c0-1.98 1.2-3.01 2.76-2.98v-1c-1.29 0-2.3.68-2.76 1.74 0-.68-.03-1.37-.04-1.56h-.97c.01.6.01 1.21.01 1.82v4.87h1z"/><path d="m158.41 24.96c.58-.62 1.26-1.12 2.05-1.48s1.65-.54 2.58-.54c1.12 0 2.11.22 2.99.67s1.7 1.03 2.49 1.76l2.21-2.54c-.46-.45-.96-.86-1.48-1.23s-1.09-.69-1.7-.96-1.29-.48-2.03-.63-1.55-.22-2.44-.22c-1.49 0-2.85.26-4.08.8-1.23.53-2.29 1.26-3.19 2.18-.89.92-1.59 2-2.08 3.23s-.74 2.54-.74 3.94c0 1.42.25 2.74.75 3.97s1.2 2.3 2.08 3.2 1.93 1.62 3.14 2.14 2.53.78 3.97.78c.91 0 1.75-.08 2.5-.24s1.45-.39 2.08-.7 1.22-.67 1.77-1.09 1.08-.9 1.58-1.44l-2.21-2.24c-.84.78-1.69 1.4-2.54 1.86-.86.46-1.88.68-3.07.68-.93 0-1.79-.18-2.58-.54s-1.48-.86-2.05-1.49c-.58-.63-1.02-1.37-1.34-2.22s-.47-1.76-.47-2.72c0-.97.16-1.87.47-2.71.31-.86.76-1.6 1.34-2.22z"/><path d="m124.24 21.9c-.64-.58-1.43-1.02-2.35-1.33s-1.95-.46-3.09-.46h-7.71v19.56h3.41v-6.29h3.89c1.09 0 2.1-.14 3.06-.43.95-.29 1.78-.71 2.49-1.27s1.27-1.26 1.68-2.1.61-1.81.61-2.91c0-1.01-.17-1.91-.52-2.71-.33-.79-.82-1.48-1.47-2.06zm-2.63 7.41c-.75.65-1.79.97-3.1.97h-4.01v-7.07h4.01c1.29 0 2.32.29 3.08.88.77.59 1.15 1.47 1.15 2.65.01 1.07-.37 1.93-1.13 2.57z"/><path d="m79.66 34.95 1.98 4.72h3.63l-8.61-19.7h-3.18l-8.61 19.7h3.52l2.01-4.72zm-4.64-10.87 3.38 7.83h-6.73z"/><path d="m183.99 19.97-8.61 19.7h3.52l2.01-4.72h9.25l1.98 4.72h3.63l-8.61-19.7zm-1.82 11.93 3.35-7.83 3.38 7.83z"/><path d="m140.51 19.97h-3.19l-8.61 19.7h3.52l2.01-4.72h9.25l1.98 4.72h3.63zm-5 11.93 3.35-7.83 3.38 7.83z"/><path d="m91.21 20.11v19.56h13.7v-3.1h-10.29v-16.46z"/></g></svg>